<svg width="1280" height="720" xmlns="http://www.w3.org/2000/svg" xmlns:xlink="http://www.w3.org/1999/xlink" overflow="hidden"><g><rect x="0" y="0" width="1280" height="720" fill="#FFFFFF"/><rect x="236" y="218" width="965" height="284" fill="#C1E5F5"/><path d="M47 360C47 200.942 175.942 72 335 72 494.058 72 623 200.942 623 360 623 519.058 494.058 648 335 648 175.942 648 47 519.058 47 360Z" fill="#C1E5F5" fill-rule="evenodd"/><g><g><g><path d="M25.314 66.391C26.6426 80.8194 26.7982 96.9533 26.469 114.117 18.2345 114.147 12.0227 114.978 6.75041 118.12 3.78214 119.892 1.73548 121.878 0.514659 125.391-0.305205 127.965 0.29922 129.826 1.89706 130.466 4.60201 131.561 15.4398 130.304 18.9047 129.544 20.3829 129.221 21.6157 128.778 22.1603 128.15 22.4894 127.773 22.7587 127.312 22.9681 126.768 23.8598 124.416 23.1058 121.717 24.8951 119.538 25.332 119.012 25.8227 118.719 26.3733 118.575 25.4996 155.804 22.657 197.509 24.6498 236.994 24.6498 262.973 25.2482 279.645 50.67 295.612 75.4813 311.195 121.244 310.704 143.578 290.579 162.991 273.086 161.758 260.226 161.758 236.994 165.014 194.888 162.483 156.48 161.286 118.689 161.699 118.856 162.076 119.126 162.417 119.538 164.206 121.717 163.452 124.416 164.344 126.768 164.553 127.312 164.822 127.773 165.152 128.15 165.696 128.778 166.929 129.221 168.407 129.544 171.872 130.304 182.71 131.561 185.415 130.466 187.013 129.826 187.617 127.965 186.797 125.391 185.576 121.878 183.53 119.892 180.561 118.12 175.355 115.02 169.233 114.17 161.148 114.117 160.699 98.5632 160.538 83.0994 161.142 67.5041 164.882-28.9166 17.7976-15.2303 25.314 66.391ZM66.9835 12.0047C49.9818 18.3602 37.5521 29.1261 32.5312 46.433 45.1284 36.9717 60.7357 22.657 66.9835 12.0047ZM120.328 9.50324C137.33 15.8587 149.766 26.6246 154.781 43.9315 142.183 34.4702 126.576 20.1555 120.328 9.50324ZM42.6628 232.327 47.7137 217.88C79.9038 222.883 113.387 222.5 140.089 217.79L144.643 231.435C108.629 248.76 80.3885 250.645 42.6628 232.327ZM153.53 211.902C157.037 191.495 156.402 160.089 152.339 139.724 144.775 168.228 146.498 184.314 153.53 211.902ZM41.9986 142.926 35.8107 114.679C62.9619 80.2808 124.607 82.6566 151.501 114.679L143.763 142.926C109.305 134.326 75.4274 135.02 41.9986 142.926ZM33.782 211.902C30.2751 191.495 30.9095 160.089 34.9729 139.724 42.5312 168.228 40.8136 184.314 33.782 211.902Z" stroke="#000000" stroke-width="0.29922" stroke-miterlimit="22.926" fill-rule="evenodd" transform="matrix(6.14573e-17 1.00367 -1 6.12323e-17 487.856 266)"/></g></g></g><path d="M1227 233 1227 487.377 1221 487.377 1221 233ZM1215 236 1224 218 1233 236ZM1233 484.378 1224 502.378 1215 484.378Z" fill="#0B76A0"/><path d="M14.9996-3 851.167-2.9999 851.167 3.0001 14.9996 3ZM18 9 0 0 18-9ZM848.166-8.9999 866.166 0.000104987 848.166 9.0001Z" fill="#0B76A0" transform="matrix(-1 0 0 1 1201.17 257)"/><path d="M332.305 632.692 332.017 371.004 338.017 370.997 338.305 632.686ZM344.302 629.679 335.322 647.689 326.302 629.699ZM326.02 374.01 335 356 344.02 373.99Z" fill="#0B76A0"/><text font-family="Aptos,Aptos_MSFontService,sans-serif" font-weight="700" font-size="24" transform="translate(698.275 245)">Distance</text><text font-family="Aptos,Aptos_MSFontService,sans-serif" font-style="italic" font-weight="400" font-size="24" transform="translate(800.708 245)">roi_d</text><text font-family="Aptos,Aptos_MSFontService,sans-serif" font-weight="700" font-size="24" transform="translate(1075.32 529)">Width</text><text font-family="Aptos,Aptos_MSFontService,sans-serif" font-style="italic" font-weight="400" font-size="24" transform="translate(1145.48 529)">roi_w</text><text font-family="Aptos,Aptos_MSFontService,sans-serif" font-weight="700" font-size="24" transform="translate(344.339 539)">Radius</text><text font-family="Aptos,Aptos_MSFontService,sans-serif" font-style="italic" font-weight="400" font-size="24" transform="translate(424.539 539)">roi_r</text></g></svg>